<?xml version="1.0" encoding="utf-8"?>
<!-- Generator: Adobe Illustrator 18.1.1, SVG Export Plug-In . SVG Version: 6.00 Build 0)  -->
<!DOCTYPE svg PUBLIC "-//W3C//DTD SVG 1.1//EN" "http://www.w3.org/Graphics/SVG/1.1/DTD/svg11.dtd">
<svg version="1.1" id="Cycle" xmlns="http://www.w3.org/2000/svg" xmlns:xlink="http://www.w3.org/1999/xlink" x="0px" y="0px"
	 viewBox="0 0 200 200" enable-background="new 0 0 200 200" xml:space="preserve">
<path fill="#FFFFFF" d="M55.2,142.2c-22.6-24.3-22.2-62.4,1.3-86.1c9.6-9.7,21.6-15.5,34.1-17.4L89.9,18c-17.5,2.1-34.5,10-48,23.5
	C10.4,73.2,10,124.4,40.7,156.8l-17.4,17.5l55.1,3L78.2,119L55.2,142.2z M121.6,22.7l0.2,58.3l23.1-23.2
	c22.6,24.3,22.2,62.5-1.3,86.1c-9.6,9.7-21.6,15.5-34.1,17.4l0.7,20.8c17.6-2.1,34.5-10,48-23.5c31.5-31.7,31.9-82.9,1.2-115.3
	l17.4-17.5L121.6,22.7z"/>
</svg>
