<?xml version="1.0" encoding="utf-8"?>
<!-- Generator: Adobe Illustrator 18.1.1, SVG Export Plug-In . SVG Version: 6.00 Build 0)  -->
<!DOCTYPE svg PUBLIC "-//W3C//DTD SVG 1.1//EN" "http://www.w3.org/Graphics/SVG/1.1/DTD/svg11.dtd">
<svg version="1.1" id="Cycle" xmlns="http://www.w3.org/2000/svg" xmlns:xlink="http://www.w3.org/1999/xlink" x="0px" y="0px"
	 viewBox="0 0 640 480" enable-background="new 0 0 640 480" xml:space="preserve">
<path fill="#3E3C3D" d="M212.5,341.3c-54.2-58.3-53.3-149.8,3.1-206.6c23-23.3,51.8-37.2,81.8-41.8l-1.7-49.7
	c-42,5-82.8,24-115.2,56.4c-75.6,76.1-76.6,199-2.9,276.7l-41.8,42l132.2,7.2l-0.5-139.9L212.5,341.3z M371.8,54.5l0.5,139.9
	l55.4-55.7c54.2,58.3,53.3,150-3.1,206.6c-23,23.3-51.8,37.2-81.8,41.8l1.7,49.9c42.2-5,82.8-24,115.2-56.4
	c75.6-76.1,76.6-199,2.9-276.7l41.8-42L371.8,54.5z"/>
</svg>
