<?xml version="1.0" encoding="utf-8"?>
<!-- Generator: Adobe Illustrator 18.1.1, SVG Export Plug-In . SVG Version: 6.00 Build 0)  -->
<!DOCTYPE svg PUBLIC "-//W3C//DTD SVG 1.1//EN" "http://www.w3.org/Graphics/SVG/1.1/DTD/svg11.dtd">
<svg version="1.1" id="Layer_1" xmlns="http://www.w3.org/2000/svg" xmlns:xlink="http://www.w3.org/1999/xlink" x="0px" y="0px"
	 viewBox="0 0 96 96" enable-background="new 0 0 96 96" xml:space="preserve">
<g>
	<path d="M81.9,48c0-5.2,3.2-9.4,8.1-12.2c-0.9-2.9-2-5.7-3.5-8.4c-5.4,1.4-9.9-0.7-13.6-4.4s-4.8-8.1-3.4-13.6
		C66.9,8,64.1,6.9,61.2,6c-2.8,4.9-8,8.1-13.2,8.1c-5.2,0-10.4-3.2-13.2-8.1c-2.9,0.9-5.7,2-8.4,3.5c1.4,5.4,0.3,9.9-3.4,13.6
		c-3.7,3.7-8.1,5.8-13.6,4.4C8,30.1,6.9,32.9,6,35.8c4.9,2.8,8.1,7,8.1,12.2S10.9,58.4,6,61.2c0.9,2.9,2,5.7,3.5,8.4
		c5.4-1.4,9.9-0.3,13.6,3.4c3.7,3.7,4.8,8.1,3.4,13.6c2.6,1.4,5.4,2.6,8.4,3.5c2.8-4.9,8-8.1,13.2-8.1c5.2,0,10.4,3.2,13.2,8.1
		c2.9-0.9,5.7-2,8.4-3.5c-1.4-5.4-0.3-9.8,3.4-13.6c3.7-3.7,8.1-5.8,13.6-4.4c1.4-2.6,2.6-5.4,3.5-8.4C85.1,57.4,81.9,53.2,81.9,48z
		 M48,66.3c-10.1,0-18.3-8.2-18.3-18.3c0-10.1,8.2-18.3,18.3-18.3c10.1,0,18.3,8.2,18.3,18.3C66.3,58.1,58.1,66.3,48,66.3z"/>
</g>
</svg>
