<?xml version="1.0" encoding="utf-8"?>
<!-- Generator: Adobe Illustrator 18.1.1, SVG Export Plug-In . SVG Version: 6.00 Build 0)  -->
<!DOCTYPE svg PUBLIC "-//W3C//DTD SVG 1.1//EN" "http://www.w3.org/Graphics/SVG/1.1/DTD/svg11.dtd">
<svg version="1.1" id="Layer_1" xmlns="http://www.w3.org/2000/svg" xmlns:xlink="http://www.w3.org/1999/xlink" x="0px" y="0px"
	 viewBox="0 0 640 480" enable-background="new 0 0 640 480" xml:space="preserve">
<g>
	<path fill="#3E3C3D" d="M489.5,240c0-26,16-47,40.5-61c-4.5-14.5-10-28.5-17.5-42c-27,7-49.5-3.5-68-22c-18.5-18.5-24-40.5-17-68
		c-13-7-27-12.5-41.5-17c-14,24.5-40,40.5-66,40.5s-52-16-66-40.5c-14.5,4.5-28.5,10-42,17.5c7,27,1.5,49.5-17,68s-40.5,29-68,22
		c-7,13-12.5,27-17,41.5c24.5,14,40.5,35,40.5,61s-16,52-40.5,66c4.5,14.5,10,28.5,17.5,42c27-7,49.5-1.5,68,17
		c18.5,18.5,24,40.5,17,68c13,7,27,13,42,17.5c14-24.5,40-40.5,66-40.5s52,16,66,40.5c14.5-4.5,28.5-10,42-17.5c-7-27-1.5-49,17-68
		c18.5-18.5,40.5-29,68-22c7-13,13-27,17.5-42C505.5,287,489.5,266,489.5,240z M320,331.5c-50.5,0-91.5-41-91.5-91.5
		s41-91.5,91.5-91.5s91.5,41,91.5,91.5S370.5,331.5,320,331.5z"/>
</g>
</svg>
