<?xml version="1.0" encoding="utf-8"?>
<!-- Generator: Adobe Illustrator 18.1.1, SVG Export Plug-In . SVG Version: 6.00 Build 0)  -->
<!DOCTYPE svg PUBLIC "-//W3C//DTD SVG 1.1//EN" "http://www.w3.org/Graphics/SVG/1.1/DTD/svg11.dtd">
<svg version="1.1" id="Layer_1" xmlns="http://www.w3.org/2000/svg" xmlns:xlink="http://www.w3.org/1999/xlink" x="0px" y="0px"
	 viewBox="0 0 640 480" enable-background="new 0 0 640 480" xml:space="preserve">
<g>
	<path fill="#3E3C3D" d="M317,0C184.5,2,78,110.5,80,243s110.5,239,243,237s239-110.5,237-243S449.5-1.5,317,0z M322.5,429.5
		C218,431,132,347,130.5,242.5S213,52,317.5,50.5s190.5,82.5,192,187S427,428,322.5,429.5z M206.5,352.5c0,0,114-15.5,163-64.5
		C418,239.5,434,125,434,125s-114,15.5-163,64.5S206.5,352.5,206.5,352.5z M295.5,214.5c20.5-20.5,59.5-35,93-44
		c-9,33.5-23.5,73-44,93.5c-13.5,13.5-35.5,13.5-49.5,0C282,250,282,228,295.5,214.5z"/>
</g>
</svg>
