<?xml version="1.0" encoding="utf-8"?>
<!-- Generator: Adobe Illustrator 18.1.1, SVG Export Plug-In . SVG Version: 6.00 Build 0)  -->
<!DOCTYPE svg PUBLIC "-//W3C//DTD SVG 1.1//EN" "http://www.w3.org/Graphics/SVG/1.1/DTD/svg11.dtd">
<svg version="1.1" id="Layer_1" xmlns="http://www.w3.org/2000/svg" xmlns:xlink="http://www.w3.org/1999/xlink" x="0px" y="0px"
	 viewBox="0 0 96 96" enable-background="new 0 0 96 96" xml:space="preserve">
<g>
	<path d="M47.4,0C20.9,0.4-0.4,22.1,0,48.6C0.4,75.1,22.1,96.4,48.6,96C75.1,95.6,96.4,73.9,96,47.4C95.6,20.9,73.9-0.3,47.4,0z
		 M48.5,85.9c-20.9,0.3-38.1-16.5-38.4-37.4C9.8,27.6,26.6,10.4,47.5,10.1c20.9-0.3,38.1,16.5,38.4,37.4
		C86.2,68.4,69.4,85.6,48.5,85.9z M25.3,70.5c0,0,22.8-3.1,32.6-12.9c9.7-9.7,12.9-32.6,12.9-32.6s-22.8,3.1-32.6,12.9
		C28.4,47.7,25.3,70.5,25.3,70.5z M43.1,42.9c4.1-4.1,11.9-7,18.6-8.8c-1.8,6.7-4.7,14.6-8.8,18.7c-2.7,2.7-7.1,2.7-9.9,0
		C40.4,50,40.4,45.6,43.1,42.9z"/>
</g>
</svg>
