<?xml version="1.0" encoding="utf-8"?>
<!-- Generator: Adobe Illustrator 18.1.1, SVG Export Plug-In . SVG Version: 6.00 Build 0)  -->
<!DOCTYPE svg PUBLIC "-//W3C//DTD SVG 1.1//EN" "http://www.w3.org/Graphics/SVG/1.1/DTD/svg11.dtd">
<svg version="1.1" id="Layer_1" xmlns="http://www.w3.org/2000/svg" xmlns:xlink="http://www.w3.org/1999/xlink" x="0px" y="0px"
	 viewBox="0 0 640 480" enable-background="new 0 0 640 480" xml:space="preserve">
<g>
	<path fill="#3E3C3D" d="M502.4,210.4H138.1c-16.8,0-30.4,13.6-30.4,30.4s13.6,30.4,30.4,30.4h364.3c16.8,0,30.4-13.6,30.4-30.4
		S519.2,210.4,502.4,210.4z M138.1,149.6h364.3c16.8,0,30.4-13.6,30.4-30.4s-13.6-30.4-30.4-30.4H138.1c-16.8,0-30.4,13.6-30.4,30.4
		C107.8,136.2,121.4,149.6,138.1,149.6z M502.4,331.8H138.1c-16.8,0-30.4,13.6-30.4,30.4c0,16.8,13.6,30.4,30.4,30.4h364.3
		c16.8,0,30.4-13.6,30.4-30.4C532.8,345.4,519.2,331.8,502.4,331.8z"/>
</g>
</svg>
