<?xml version="1.0" encoding="utf-8"?>
<!-- Generator: Adobe Illustrator 18.1.0, SVG Export Plug-In . SVG Version: 6.00 Build 0)  -->
<!DOCTYPE svg PUBLIC "-//W3C//DTD SVG 1.1//EN" "http://www.w3.org/Graphics/SVG/1.1/DTD/svg11.dtd">
<svg version="1.1" id="Layer_1" xmlns="http://www.w3.org/2000/svg" xmlns:xlink="http://www.w3.org/1999/xlink" x="0px" y="0px"
	 viewBox="0 0 300 300" enable-background="new 0 0 300 300" xml:space="preserve">
<g>
	<path fill="#FFFFFF" d="M264,131.5H36.3c-10.5,0-19,8.5-19,19c0,10.5,8.5,19,19,19H264c10.5,0,19-8.5,19-19
		C283,140,274.5,131.5,264,131.5z M36.3,93.5H264c10.5,0,19-8.5,19-19c0-10.5-8.5-19-19-19H36.3c-10.5,0-19,8.5-19,19
		C17.4,85.1,25.9,93.5,36.3,93.5z M264,207.4H36.3c-10.5,0-19,8.5-19,19c0,10.5,8.5,19,19,19H264c10.5,0,19-8.5,19-19
		C283,215.9,274.5,207.4,264,207.4z"/>
</g>
</svg>
