<?xml version="1.0" encoding="utf-8"?>
<!-- Generator: Adobe Illustrator 18.1.1, SVG Export Plug-In . SVG Version: 6.00 Build 0)  -->
<!DOCTYPE svg PUBLIC "-//W3C//DTD SVG 1.1//EN" "http://www.w3.org/Graphics/SVG/1.1/DTD/svg11.dtd">
<svg version="1.1" id="Layer_1" xmlns="http://www.w3.org/2000/svg" xmlns:xlink="http://www.w3.org/1999/xlink" x="0px" y="0px"
	 viewBox="0 0 640 480" enable-background="new 0 0 640 480" xml:space="preserve">
<g>
	<path fill="#3E3C3D" d="M265,297l-100-40v34l100,40V297z M265,193l-100-40v34l100,40V193z M534,19.5c-7-4.5-15.5-5.5-23.5-2.5
		L320,93L129.5,17c-8-3.5-16.5-2.5-23.5,2.5C99,24,95,31.5,95,40v320c0,10,6,19.5,15.5,23L310,463c0,0,4,1.5,5,1.5
		c1.5,0.5,3,0.5,5,0.5c1.5,0,3,0,5-0.5c1,0,5-1.5,5-1.5l199.5-80c9.5-3.5,15.5-13,15.5-23V40C545,31.5,541,24,534,19.5z M295,414
		l-160-64V70l160,64V414z M505,350l-160,64V134l160-64V350z M475,256.5l-100,40v34l100-40V256.5z M475,153l-100,40v34l100-40V153z"
		/>
</g>
</svg>
