<?xml version="1.0" encoding="utf-8"?>
<!-- Generator: Adobe Illustrator 18.1.1, SVG Export Plug-In . SVG Version: 6.00 Build 0)  -->
<!DOCTYPE svg PUBLIC "-//W3C//DTD SVG 1.1//EN" "http://www.w3.org/Graphics/SVG/1.1/DTD/svg11.dtd">
<svg version="1.1" id="Layer_1" xmlns="http://www.w3.org/2000/svg" xmlns:xlink="http://www.w3.org/1999/xlink" x="0px" y="0px"
	 viewBox="0 0 96 96" enable-background="new 0 0 96 96" xml:space="preserve">
<g>
	<path d="M37,59.4l-20-8v6.8l20,8V59.4z M37,38.6l-20-8v6.8l20,8V38.6z M90.8,3.9c-1.4-0.9-3.1-1.1-4.7-0.5L48,18.6L9.9,3.4
		C8.3,2.7,6.6,2.9,5.2,3.9C3.8,4.8,3,6.3,3,8v64c0,2,1.2,3.9,3.1,4.6l39.9,16c0,0,0.8,0.3,1,0.3c0.3,0.1,0.6,0.1,1,0.1
		c0.3,0,0.6,0,1-0.1c0.2,0,1-0.3,1-0.3l39.9-16C91.8,75.9,93,74,93,72V8C93,6.3,92.2,4.8,90.8,3.9z M43,82.8L11,70v-56l32,12.8V82.8
		z M85,70L53,82.8v-56l32-12.8V70z M79,51.3l-20,8v6.8l20-8V51.3z M79,30.6l-20,8v6.8l20-8V30.6z"/>
</g>
</svg>
