<?xml version="1.0" encoding="utf-8"?>
<!-- Generator: Adobe Illustrator 18.1.1, SVG Export Plug-In . SVG Version: 6.00 Build 0)  -->
<!DOCTYPE svg PUBLIC "-//W3C//DTD SVG 1.1//EN" "http://www.w3.org/Graphics/SVG/1.1/DTD/svg11.dtd">
<svg version="1.1" id="Layer_1" xmlns="http://www.w3.org/2000/svg" xmlns:xlink="http://www.w3.org/1999/xlink" x="0px" y="0px"
	 viewBox="0 0 640 480" enable-background="new 0 0 640 480" xml:space="preserve">
<g>
	<path fill="#3E3C3D" d="M504,56H136c-25.5,0-46,20.5-46,46v276c0,25.5,20.5,46,46,46h368c25.5,0,46-20.5,46-46V102
		C550,76.5,529.5,56,504,56z M504,378H136V102h368L504,378L504,378z M297,288.5H182V330h115V288.5z M297,219.5H182V261h115V219.5z
		 M297,150.5H182V192h115V150.5z M455.5,297.5c0,0-39-10-39-30.5c0-19,25.5-27,25.5-66.5c0-32-9.5-50.5-41.5-50.5S359,169,359,200.5
		c0,39,25.5,47,25.5,66.5c0,20-39,30.5-39,30.5c-2.5,0-2.5,32-2.5,32h115C458,329.5,458,297.5,455.5,297.5z"/>
</g>
</svg>
