<?xml version="1.0" encoding="utf-8"?>
<!-- Generator: Adobe Illustrator 18.1.1, SVG Export Plug-In . SVG Version: 6.00 Build 0)  -->
<!DOCTYPE svg PUBLIC "-//W3C//DTD SVG 1.1//EN" "http://www.w3.org/Graphics/SVG/1.1/DTD/svg11.dtd">
<svg version="1.1" id="Layer_1" xmlns="http://www.w3.org/2000/svg" xmlns:xlink="http://www.w3.org/1999/xlink" x="0px" y="0px"
	 viewBox="0 0 96 96" enable-background="new 0 0 96 96" xml:space="preserve">
<g>
	<path d="M84.8,11.2H11.2c-5.1,0-9.2,4.1-9.2,9.2v55.2c0,5.1,4.1,9.2,9.2,9.2h73.6c5.1,0,9.2-4.1,9.2-9.2V20.4
		C94,15.3,89.9,11.2,84.8,11.2z M84.8,75.6H11.2V20.4h73.6V75.6z M43.4,57.7h-23v8.3h23V57.7z M43.4,43.9h-23v8.3h23V43.9z
		 M43.4,30.1h-23v8.3h23V30.1z M75.1,59.5c0,0-7.8-2-7.8-6.1c0-3.8,5.1-5.4,5.1-13.3c0-6.4-1.9-10.1-8.3-10.1
		c-6.4,0-8.3,3.8-8.3,10.1c0,7.8,5.1,9.4,5.1,13.3c0,4-7.8,6.1-7.8,6.1c-0.5,0-0.5,6.4-0.5,6.4h23C75.6,65.9,75.6,59.5,75.1,59.5z"
		/>
</g>
</svg>
