<?xml version="1.0" encoding="utf-8"?>
<!-- Generator: Adobe Illustrator 18.1.1, SVG Export Plug-In . SVG Version: 6.00 Build 0)  -->
<!DOCTYPE svg PUBLIC "-//W3C//DTD SVG 1.1//EN" "http://www.w3.org/Graphics/SVG/1.1/DTD/svg11.dtd">
<svg version="1.1" id="Layer_1" xmlns="http://www.w3.org/2000/svg" xmlns:xlink="http://www.w3.org/1999/xlink" x="0px" y="0px"
	 viewBox="0 0 50 50" enable-background="new 0 0 50 50" xml:space="preserve">
<g>
	<path fill="#E0E1E1" d="M24.8,6.2c-10.4,0.2-18.7,8.6-18.5,19s8.6,18.7,19,18.5s18.7-8.6,18.5-19S35.1,6.1,24.8,6.2z M25.2,39.8
		c-8.2,0.1-14.9-6.4-15-14.6s6.4-14.9,14.6-15s14.9,6.4,15,14.6S33.4,39.7,25.2,39.8z M16.1,33.8c0,0,8.9-1.2,12.7-5
		c3.8-3.8,5-12.7,5-12.7s-8.9,1.2-12.7,5S16.1,33.8,16.1,33.8z M23.1,23c1.6-1.6,4.6-2.7,7.3-3.4c-0.7,2.6-1.8,5.7-3.4,7.3
		c-1.1,1.1-2.8,1.1-3.9,0C22,25.8,22,24.1,23.1,23z"/>
</g>
</svg>
