<?xml version="1.0" encoding="utf-8"?>
<!-- Generator: Adobe Illustrator 18.1.1, SVG Export Plug-In . SVG Version: 6.00 Build 0)  -->
<!DOCTYPE svg PUBLIC "-//W3C//DTD SVG 1.1//EN" "http://www.w3.org/Graphics/SVG/1.1/DTD/svg11.dtd">
<svg version="1.1" id="Layer_1" xmlns="http://www.w3.org/2000/svg" xmlns:xlink="http://www.w3.org/1999/xlink" x="0px" y="0px"
	 viewBox="0 0 50 50" enable-background="new 0 0 50 50" xml:space="preserve">
<g>
	<path fill="#E0E1E1" d="M20.7,29.5l-7.8-3.1V29l7.8,3.1V29.5z M20.7,21.3l-7.8-3.1v2.7l7.8,3.1V21.3z M41.7,7.8
		c-0.5-0.4-1.2-0.4-1.8-0.2L25,13.5L10.1,7.6C9.5,7.3,8.8,7.4,8.3,7.8C7.7,8.1,7.4,8.7,7.4,9.4v25c0,0.8,0.5,1.5,1.2,1.8l15.6,6.2
		c0,0,0.3,0.1,0.4,0.1c0.1,0,0.2,0,0.4,0c0.1,0,0.2,0,0.4,0c0.1,0,0.4-0.1,0.4-0.1l15.6-6.2c0.7-0.3,1.2-1,1.2-1.8v-25
		C42.6,8.7,42.3,8.1,41.7,7.8z M23,38.6l-12.5-5V11.7l12.5,5V38.6z M39.5,33.6l-12.5,5V16.7l12.5-5V33.6z M37.1,26.3l-7.8,3.1v2.7
		l7.8-3.1V26.3z M37.1,18.2l-7.8,3.1V24l7.8-3.1V18.2z"/>
</g>
</svg>
