<?xml version="1.0" encoding="utf-8"?>
<!-- Generator: Adobe Illustrator 18.1.1, SVG Export Plug-In . SVG Version: 6.00 Build 0)  -->
<!DOCTYPE svg PUBLIC "-//W3C//DTD SVG 1.1//EN" "http://www.w3.org/Graphics/SVG/1.1/DTD/svg11.dtd">
<svg version="1.1" id="Layer_1" xmlns="http://www.w3.org/2000/svg" xmlns:xlink="http://www.w3.org/1999/xlink" x="0px" y="0px"
	 viewBox="0 0 50 50" enable-background="new 0 0 50 50" xml:space="preserve">
<g>
	<path fill="#E0E1E1" d="M39.4,10.6H10.6c-2,0-3.6,1.6-3.6,3.6v21.6c0,2,1.6,3.6,3.6,3.6h28.8c2,0,3.6-1.6,3.6-3.6V14.2
		C43,12.2,41.4,10.6,39.4,10.6z M39.4,35.8H10.6V14.2h28.8V35.8L39.4,35.8z M23.2,28.8h-9V32h9V28.8z M23.2,23.4h-9v3.2h9V23.4z
		 M23.2,18h-9v3.2h9V18z M35.6,29.5c0,0-3-0.8-3-2.4c0-1.5,2-2.1,2-5.2c0-2.5-0.7-3.9-3.2-3.9S28,19.5,28,21.9c0,3,2,3.7,2,5.2
		c0,1.6-3,2.4-3,2.4c-0.2,0-0.2,2.5-0.2,2.5h9C35.8,32,35.8,29.5,35.6,29.5z"/>
</g>
</svg>
