<?xml version="1.0" encoding="utf-8"?>
<!-- Generator: Adobe Illustrator 18.1.1, SVG Export Plug-In . SVG Version: 6.00 Build 0)  -->
<!DOCTYPE svg PUBLIC "-//W3C//DTD SVG 1.1//EN" "http://www.w3.org/Graphics/SVG/1.1/DTD/svg11.dtd">
<svg version="1.1" id="Layer_1" xmlns="http://www.w3.org/2000/svg" xmlns:xlink="http://www.w3.org/1999/xlink" x="0px" y="0px"
	 viewBox="0 0 50 50" enable-background="new 0 0 50 50" xml:space="preserve">
<g>
	<path fill="#E0E1E1" d="M38.2,25c0-2,1.2-3.7,3.2-4.8C41.1,19.1,40.6,18,40,17c-2.1,0.5-3.9-0.3-5.3-1.7s-1.9-3.2-1.3-5.3
		c-1-0.5-2.1-1-3.2-1.3c-1.1,1.9-3.1,3.2-5.2,3.2s-4.1-1.2-5.2-3.2c-1.1,0.4-2.2,0.8-3.3,1.4c0.5,2.1,0.1,3.9-1.3,5.3
		s-3.2,2.3-5.3,1.7c-0.5,1-1,2.1-1.3,3.2c1.9,1.1,3.2,2.7,3.2,4.8s-1.2,4.1-3.2,5.2c0.4,1.1,0.8,2.2,1.4,3.3
		c2.1-0.5,3.9-0.1,5.3,1.3s1.9,3.2,1.3,5.3c1,0.5,2.1,1,3.3,1.4c1.1-1.9,3.1-3.2,5.2-3.2s4.1,1.2,5.2,3.2c1.1-0.4,2.2-0.8,3.3-1.4
		c-0.5-2.1-0.1-3.8,1.3-5.3c1.4-1.4,3.2-2.3,5.3-1.7c0.5-1,1-2.1,1.4-3.3C39.5,28.7,38.2,27,38.2,25z M25,32.1
		c-3.9,0-7.1-3.2-7.1-7.1s3.2-7.1,7.1-7.1s7.1,3.2,7.1,7.1S28.9,32.1,25,32.1z"/>
</g>
</svg>
